<svg width="30" height="30" viewBox="0 0 30 30" fill="none" xmlns="http://www.w3.org/2000/svg">
<path d="M19.3067 5.24678H5.36038C4.05176 5.24678 2.98889 6.30965 2.98889 7.61828V27.6285C2.98889 28.9371 4.05176 30 5.36038 30H19.3067C20.6154 30 21.6782 28.9371 21.6782 27.6285V7.61828C21.6721 6.30965 20.6092 5.24678 19.3067 5.24678ZM20.0133 27.6224C20.0133 28.0156 19.6938 28.335 19.3006 28.335H5.35424C4.96104 28.335 4.64156 28.0156 4.64156 27.6224V7.61828C4.64156 7.22507 4.96104 6.9056 5.35424 6.9056H19.3006C19.6938 6.9056 20.0133 7.22507 20.0133 7.61828V27.6224Z" fill="#B88AD4"/>
<path d="M24.6395 0H10.6931C9.38453 0 8.32166 1.06287 8.32166 2.37149C8.32166 2.83228 8.69028 3.2009 9.15106 3.2009C9.61185 3.2009 9.98047 2.83228 9.98047 2.37149C9.98047 1.97829 10.2999 1.65882 10.6931 1.65882H24.6395C25.0327 1.65882 25.3522 1.97829 25.3522 2.37149V22.3817C25.3522 22.7749 25.0327 23.0944 24.6395 23.0944C24.1787 23.0944 23.8101 23.463 23.8101 23.9238C23.8101 24.3846 24.1787 24.7532 24.6395 24.7532C25.9481 24.7532 27.011 23.6904 27.011 22.3817V2.37149C27.011 1.06287 25.9481 0 24.6395 0Z" fill="#B88AD4"/>
</svg>
