<svg width="40" height="40" viewBox="0 0 40 40" fill="none" xmlns="http://www.w3.org/2000/svg">
<path d="M24.9997 21.6667C24.0781 21.6667 23.3332 22.4135 23.3332 23.3333V30.0001C23.3332 30.9183 22.5864 31.6666 21.6663 31.6666H16.6664V6.66687C16.6664 5.24354 15.7597 3.97189 14.3965 3.49856L13.9031 3.33346H21.6663C22.5864 3.33346 23.3332 4.08175 23.3332 5.00032V10.0003C23.3332 10.9201 24.0781 11.6668 24.9997 11.6668C25.9214 11.6668 26.6663 10.9201 26.6663 10.0003V5.00032C26.6663 2.24369 24.423 0.000366211 21.6663 0.000366211H3.74996C3.68649 0.000366211 3.63338 0.0287473 3.57174 0.0369869C3.49148 0.0302732 3.41488 0.000366211 3.3334 0.000366211C1.49504 0.000366211 0 1.4951 0 3.33346V33.3332C0 34.7565 0.906668 36.0282 2.26987 36.5015L12.3 39.845C12.6399 39.9499 12.9781 40 13.3333 40C15.1717 40 16.6664 38.5049 16.6664 36.6666V35H21.6663C24.423 35 26.6663 32.7567 26.6663 30.0001V23.3333C26.6663 22.4135 25.9214 21.6667 24.9997 21.6667Z" fill="#B88AD4"/>
<path d="M39.5114 15.4886L32.8446 8.82209C32.3682 8.34541 31.6513 8.20198 31.0282 8.46016C30.4065 8.71864 29.9997 9.32685 29.9997 10.0004V15.0003H23.3332C22.4131 15.0003 21.6664 15.7468 21.6664 16.6669C21.6664 17.587 22.4131 18.3334 23.3332 18.3334H29.9997V23.3334C29.9997 24.0069 30.4065 24.6151 31.0282 24.8736C31.6513 25.1317 32.3682 24.9883 32.8446 24.5119L39.5114 17.8451C40.1629 17.1936 40.1629 16.1401 39.5114 15.4886Z" fill="#B88AD4"/>
</svg>
