<svg width="31" height="30" viewBox="0 0 31 30" fill="none" xmlns="http://www.w3.org/2000/svg">
<g clip-path="url(#clip0)">
<path d="M29.7571 27.8662L21.4648 19.335C23.0711 17.2938 24.0382 14.7 24.0382 11.8751C24.0382 5.32765 18.8599 0.000183105 12.4958 0.000183105C6.13167 0.000183105 0.95343 5.32759 0.95343 11.875C0.95343 18.4225 6.13173 23.7499 12.4958 23.7499C15.2417 23.7499 17.7628 22.755 19.7469 21.1025L28.0392 29.6336C28.2761 29.8774 28.5871 29.9999 28.8982 29.9999C29.2092 29.9999 29.5203 29.8774 29.7572 29.6336C30.2322 29.1449 30.2322 28.3549 29.7571 27.8662ZM12.4958 21.2499C7.47063 21.2499 3.38343 17.045 3.38343 11.875C3.38343 6.70506 7.47063 2.50012 12.4958 2.50012C17.521 2.50012 21.6082 6.70506 21.6082 11.875C21.6082 17.045 17.521 21.2499 12.4958 21.2499Z" fill="#530086"/>
</g>
<defs>
<clipPath id="clip0">
<rect width="29.16" height="30" fill="white" transform="translate(0.95343)"/>
</clipPath>
</defs>
</svg>
