<svg width="30" height="30" viewBox="0 0 30 30" fill="none" xmlns="http://www.w3.org/2000/svg">
<path d="M29.6392 8.59188L21.2741 0.226742C20.9721 -0.0755399 20.4818 -0.0755399 20.1798 0.226742L20.1444 0.262186C19.6314 0.774965 19.3488 1.45707 19.3488 2.18236C19.3488 2.64964 19.4675 3.09803 19.6881 3.49565L10.9354 11.0075C10.2655 10.4088 9.41052 10.0812 8.50492 10.0812C7.52904 10.0812 6.61167 10.4611 5.92183 11.1511L5.86936 11.2036C5.56708 11.5057 5.56708 11.9958 5.86936 12.2979L10.8808 17.3093L5.99999 22.1899C5.90233 22.2903 3.59211 24.671 2.07327 26.5655C0.626874 28.3691 0.340844 28.6996 0.325985 28.7166C0.0574457 29.0224 0.0723044 29.4837 0.359727 29.7725C0.510326 29.9237 0.708906 30.0002 0.908105 30.0002C1.08966 30.0002 1.27168 29.9367 1.4181 29.8087C1.43095 29.7976 1.75381 29.5169 3.5692 28.0614C5.46338 26.5426 7.84402 24.2322 7.95221 24.1268L12.8251 19.2539L17.5681 23.9969C17.7192 24.1482 17.9173 24.2237 18.1152 24.2237C18.3132 24.2237 18.5115 24.1482 18.6624 23.9969L18.7148 23.9445C19.4049 23.2546 19.7848 22.3371 19.7848 21.3614C19.7848 20.4558 19.457 19.6008 18.8585 18.9309L26.3703 10.1782C26.7679 10.3988 27.2163 10.5175 27.6836 10.5175C28.4091 10.5175 29.091 10.235 29.6038 9.72191L29.6392 9.68647C29.9415 9.38403 29.9415 8.894 29.6392 8.59188Z" fill="#530086"/>
</svg>
