<svg width="30" height="30" viewBox="0 0 30 30" fill="none" xmlns="http://www.w3.org/2000/svg">
<g clip-path="url(#clip0)">
<path d="M29.6392 8.59188L21.2741 0.226742C20.9721 -0.0755399 20.4818 -0.0755399 20.1798 0.226742L20.1444 0.262186C19.6314 0.774965 19.3488 1.45707 19.3488 2.18236C19.3488 2.64964 19.4675 3.09803 19.6881 3.49565L10.9354 11.0075C10.2655 10.4088 9.41051 10.0812 8.5049 10.0812C7.52903 10.0812 6.61166 10.4611 5.92181 11.1511L5.86934 11.2036C5.56706 11.5057 5.56706 11.9958 5.86934 12.2979L10.8807 17.3093L5.99998 22.1899C5.90231 22.2903 3.5921 24.671 2.07326 26.5655C0.626859 28.3691 0.340829 28.6996 0.32597 28.7166C0.0574304 29.0224 0.0722891 29.4837 0.359712 29.7725C0.510311 29.9237 0.708891 30.0002 0.90809 30.0002C1.08964 30.0002 1.27166 29.9367 1.41808 29.8087C1.43093 29.7976 1.7538 29.5169 3.56919 28.0614C5.46336 26.5426 7.844 24.2322 7.95219 24.1268L12.8251 19.2539L17.5681 23.9969C17.7191 24.1482 17.9173 24.2237 18.1152 24.2237C18.3132 24.2237 18.5115 24.1482 18.6624 23.9969L18.7148 23.9445C19.4048 23.2546 19.7848 22.3371 19.7848 21.3614C19.7848 20.4558 19.457 19.6008 18.8585 18.9309L26.3703 10.1782C26.7679 10.3988 27.2163 10.5175 27.6836 10.5175C28.409 10.5175 29.091 10.235 29.6038 9.72191L29.6392 9.68647C29.9415 9.38403 29.9415 8.894 29.6392 8.59188Z" fill="#B88AD4"/>
</g>
<defs>
<clipPath id="clip0">
<rect width="30" height="30" fill="white"/>
</clipPath>
</defs>
</svg>
