<svg width="37" height="30" viewBox="0 0 37 30" fill="none" xmlns="http://www.w3.org/2000/svg">
<g clip-path="url(#clip0)">
<path d="M34.3097 13.5H19.8637V1.49991C19.8637 0.672089 19.0546 0 18.0577 0C17.0611 0 16.252 0.672089 16.252 1.49991V13.5H1.80567C0.809096 13.5 0 14.1721 0 14.9999C0 15.828 0.809096 16.5001 1.80567 16.5001H16.252V28.4999C16.252 29.328 17.0611 30.0001 18.0577 30.0001C19.0546 30.0001 19.8637 29.328 19.8637 28.4999V16.5001H34.3097C35.3066 16.5001 36.1157 15.828 36.1157 14.9999C36.1157 14.1721 35.3066 13.5 34.3097 13.5Z" fill="#B88AD4"/>
</g>
<defs>
<clipPath id="clip0">
<rect width="36.1156" height="30" fill="white"/>
</clipPath>
</defs>
</svg>
