<svg width="37" height="30" viewBox="0 0 37 30" fill="none" xmlns="http://www.w3.org/2000/svg">
<g clip-path="url(#clip0)">
<path d="M34.4253 13.5H19.9792V1.49991C19.9792 0.672089 19.1701 0 18.1732 0C17.1767 0 16.3676 0.672089 16.3676 1.49991V13.5H1.92124C0.924666 13.5 0.11557 14.1721 0.11557 14.9999C0.11557 15.828 0.924666 16.5001 1.92124 16.5001H16.3676V28.4999C16.3676 29.328 17.1767 30.0001 18.1732 30.0001C19.1701 30.0001 19.9792 29.328 19.9792 28.4999V16.5001H34.4253C35.4222 16.5001 36.2313 15.828 36.2313 14.9999C36.2313 14.1721 35.4222 13.5 34.4253 13.5Z" fill="white"/>
</g>
<defs>
<clipPath id="clip0">
<rect width="36.1156" height="30" fill="white" transform="translate(0.11557)"/>
</clipPath>
</defs>
</svg>
